# xmcd CD database file
#
# Track frame offsets:
#	150
#	27245
#	48197
#	75795
#
# Disc length: 1370 seconds
#
# Revision: 1
# Processed by: cddbd v1.5.2PL0 Copyright (c) Steve Scherf et al.
# Submitted via: jetAudio 5
#
DISCID=1c055804
DTITLE=DJ HASEBE - TABOO feat. momoko suzuki
DYEAR=2000
DGENRE=Hip Hop
TTITLE0=TABOO feat. momoko suzuki
TTITLE1=HONE DIP feat. HONEY DIP DEEJAY'S
TTITLE2=TABOO feat. momoko suzuki - DABO -Foreplay mix-
TTITLE3=TABOO -instrumental-
EXTD=YEAR: 2000
EXTT0=
EXTT1=
EXTT2=
EXTT3=
PLAYORDER=
